<svg width="16" height="14" viewBox="0 0 16 14" fill="none" xmlns="http://www.w3.org/2000/svg">
<path d="M4.3628 0.109319C4.32796 0.0743592 4.28656 0.0466203 4.24098 0.0276933C4.1954 0.00876631 4.14653 -0.000976562 4.09717 -0.000976562C4.04782 -0.000976562 3.99895 0.00876631 3.95336 0.0276933C3.90778 0.0466203 3.86638 0.0743592 3.83155 0.109319L1.84155 2.08776L1.13217 1.39651C1.09733 1.36155 1.05593 1.33381 1.01035 1.31488C0.964771 1.29595 0.915901 1.28621 0.866546 1.28621C0.81719 1.28621 0.768321 1.29595 0.722739 1.31488C0.677157 1.33381 0.635759 1.36155 0.600921 1.39651L0.110296 1.88776C0.0753357 1.9226 0.0475969 1.96399 0.0286699 2.00957C0.00974286 2.05516 0 2.10403 0 2.15338C0 2.20274 0.00974286 2.25161 0.0286699 2.29719C0.0475969 2.34277 0.0753357 2.38417 0.110296 2.41901L1.59748 3.90026C1.67172 3.97082 1.77022 4.01017 1.87264 4.01017C1.97506 4.01017 2.07356 3.97082 2.1478 3.90026L2.63498 3.41213L4.89123 1.15619C4.96153 1.08584 5.00125 0.990603 5.00178 0.891147C5.00231 0.791691 4.9636 0.696039 4.89405 0.624944L4.3628 0.109319ZM4.3628 5.08401C4.32796 5.04905 4.28656 5.02131 4.24098 5.00238C4.1954 4.98345 4.14653 4.97371 4.09717 4.97371C4.04782 4.97371 3.99895 4.98345 3.95336 5.00238C3.90778 5.02131 3.86638 5.04905 3.83155 5.08401L1.84155 7.07526L1.13217 6.38463C1.09733 6.34967 1.05593 6.32193 1.01035 6.30301C0.964771 6.28408 0.915901 6.27434 0.866546 6.27434C0.81719 6.27434 0.768321 6.28408 0.722739 6.30301C0.677157 6.32193 0.635759 6.34967 0.600921 6.38463L0.110296 6.87494C0.0753357 6.90978 0.0475969 6.95118 0.0286699 6.99676C0.00974286 7.04234 0 7.09121 0 7.14057C0 7.18992 0.00974286 7.23879 0.0286699 7.28438C0.0475969 7.32996 0.0753357 7.37136 0.110296 7.40619L1.59373 8.89057C1.66791 8.96111 1.76637 9.00045 1.86873 9.00045C1.9711 9.00045 2.06955 8.96111 2.14373 8.89057L2.63436 8.40026L4.89061 6.14338C4.96064 6.07352 5.00023 5.97882 5.00075 5.8799C5.00128 5.78098 4.9627 5.68586 4.89342 5.61526L4.3628 5.08401ZM1.99998 10.4999C1.17217 10.4999 0.481546 11.1718 0.481546 11.9999C0.481546 12.8281 1.1728 13.4999 1.99998 13.4999C2.39781 13.4999 2.77934 13.3419 3.06064 13.0606C3.34195 12.7793 3.49998 12.3978 3.49998 11.9999C3.49998 11.6021 3.34195 11.2206 3.06064 10.9393C2.77934 10.658 2.39781 10.4999 1.99998 10.4999ZM15.5 10.9999H6.49998C6.36737 10.9999 6.2402 11.0526 6.14643 11.1464C6.05266 11.2402 5.99998 11.3673 5.99998 11.4999V12.4999C5.99998 12.6326 6.05266 12.7597 6.14643 12.8535C6.2402 12.9473 6.36737 12.9999 6.49998 12.9999H15.5C15.6326 12.9999 15.7598 12.9473 15.8535 12.8535C15.9473 12.7597 16 12.6326 16 12.4999V11.4999C16 11.3673 15.9473 11.2402 15.8535 11.1464C15.7598 11.0526 15.6326 10.9999 15.5 10.9999ZM15.5 0.999944H6.49998C6.36737 0.999944 6.2402 1.05262 6.14643 1.14639C6.05266 1.24016 5.99998 1.36734 5.99998 1.49994V2.49994C5.99998 2.63255 6.05266 2.75973 6.14643 2.8535C6.2402 2.94727 6.36737 2.99994 6.49998 2.99994H15.5C15.6326 2.99994 15.7598 2.94727 15.8535 2.8535C15.9473 2.75973 16 2.63255 16 2.49994V1.49994C16 1.36734 15.9473 1.24016 15.8535 1.14639C15.7598 1.05262 15.6326 0.999944 15.5 0.999944ZM15.5 5.99994H6.49998C6.36737 5.99994 6.2402 6.05262 6.14643 6.14639C6.05266 6.24016 5.99998 6.36734 5.99998 6.49994V7.49994C5.99998 7.63255 6.05266 7.75973 6.14643 7.8535C6.2402 7.94727 6.36737 7.99994 6.49998 7.99994H15.5C15.6326 7.99994 15.7598 7.94727 15.8535 7.8535C15.9473 7.75973 16 7.63255 16 7.49994V6.49994C16 6.36734 15.9473 6.24016 15.8535 6.14639C15.7598 6.05262 15.6326 5.99994 15.5 5.99994Z" fill="white"/>
</svg>
