<svg width="17" height="22" viewBox="0 0 17 22" fill="none" xmlns="http://www.w3.org/2000/svg">
<path d="M9.18562 22H8.09106C7.65562 22 7.23801 21.7827 6.9301 21.3959C6.6222 21.0091 6.44922 20.4845 6.44922 19.9375V11.6875C6.44922 11.1405 6.6222 10.6159 6.9301 10.2291C7.23801 9.8423 7.65562 9.625 8.09106 9.625H9.18562C9.62106 9.625 10.0387 9.8423 10.3466 10.2291C10.6545 10.6159 10.8275 11.1405 10.8275 11.6875V15.8125C10.8275 15.9948 10.7698 16.1697 10.6672 16.2986C10.5645 16.4276 10.4253 16.5 10.2802 16.5C10.135 16.5 9.99583 16.4276 9.89319 16.2986C9.79056 16.1697 9.7329 15.9948 9.7329 15.8125V11.6875C9.7329 11.5052 9.67524 11.3303 9.57261 11.2014C9.46997 11.0724 9.33077 11 9.18562 11H8.09106C7.94591 11 7.80671 11.0724 7.70407 11.2014C7.60144 11.3303 7.54378 11.5052 7.54378 11.6875V19.9375C7.54378 20.1198 7.60144 20.2947 7.70407 20.4236C7.80671 20.5526 7.94591 20.625 8.09106 20.625H9.18562C9.33077 20.625 9.46997 20.5526 9.57261 20.4236C9.67524 20.2947 9.7329 20.1198 9.7329 19.9375V18.5625C9.7329 18.3802 9.79056 18.2053 9.89319 18.0764C9.99583 17.9474 10.135 17.875 10.2802 17.875C10.4253 17.875 10.5645 17.9474 10.6672 18.0764C10.7698 18.2053 10.8275 18.3802 10.8275 18.5625V19.9375C10.8275 20.4845 10.6545 21.0091 10.3466 21.3959C10.0387 21.7827 9.62106 22 9.18562 22Z" fill="black"/>
<path d="M3.71296 22H2.6184C2.18296 22 1.76535 21.7827 1.45745 21.3959C1.14954 21.0091 0.976563 20.4845 0.976562 19.9375V15.8125C0.976563 15.2655 1.14954 14.7409 1.45745 14.3541C1.76535 13.9673 2.18296 13.75 2.6184 13.75H3.71296C4.14841 13.75 4.56602 13.9673 4.87392 14.3541C5.18183 14.7409 5.3548 15.2655 5.3548 15.8125V19.9375C5.3548 20.4845 5.18183 21.0091 4.87392 21.3959C4.56602 21.7827 4.14841 22 3.71296 22ZM2.6184 15.125C2.47326 15.125 2.33405 15.1974 2.23142 15.3264C2.12878 15.4553 2.07112 15.6302 2.07112 15.8125V19.9375C2.07112 20.1198 2.12878 20.2947 2.23142 20.4236C2.33405 20.5526 2.47326 20.625 2.6184 20.625H3.71296C3.85811 20.625 3.99731 20.5526 4.09995 20.4236C4.20258 20.2947 4.26024 20.1198 4.26024 19.9375V15.8125C4.26024 15.6302 4.20258 15.4553 4.09995 15.3264C3.99731 15.1974 3.85811 15.125 3.71296 15.125H2.6184Z" fill="black"/>
<path d="M14.6583 22H13.5637C13.1283 22 12.7107 21.7827 12.4028 21.3959C12.0949 21.0091 11.9219 20.4845 11.9219 19.9375V8.9375C11.9219 8.39049 12.0949 7.86589 12.4028 7.47909C12.7107 7.0923 13.1283 6.875 13.5637 6.875H14.6583C15.0937 6.875 15.5113 7.0923 15.8192 7.47909C16.1271 7.86589 16.3001 8.39049 16.3001 8.9375V11.6875C16.3001 11.8698 16.2425 12.0447 16.1398 12.1736C16.0372 12.3026 15.898 12.375 15.7528 12.375C15.6077 12.375 15.4685 12.3026 15.3659 12.1736C15.2632 12.0447 15.2056 11.8698 15.2056 11.6875V8.9375C15.2056 8.75516 15.1479 8.5803 15.0453 8.45136C14.9426 8.32243 14.8034 8.25 14.6583 8.25H13.5637C13.4186 8.25 13.2794 8.32243 13.1767 8.45136C13.0741 8.5803 13.0164 8.75516 13.0164 8.9375V19.9375C13.0164 20.1198 13.0741 20.2947 13.1767 20.4236C13.2794 20.5526 13.4186 20.625 13.5637 20.625H14.6583C14.8034 20.625 14.9426 20.5526 15.0453 20.4236C15.1479 20.2947 15.2056 20.1198 15.2056 19.9375V14.4375C15.2056 14.2552 15.2632 14.0803 15.3659 13.9514C15.4685 13.8224 15.6077 13.75 15.7528 13.75C15.898 13.75 16.0372 13.8224 16.1398 13.9514C16.2425 14.0803 16.3001 14.2552 16.3001 14.4375V19.9375C16.3001 20.4845 16.1271 21.0091 15.8192 21.3959C15.5113 21.7827 15.0937 22 14.6583 22Z" fill="black"/>
<path d="M3.16528 11C2.84055 11 2.52312 10.879 2.25312 10.6524C1.98312 10.4258 1.77268 10.1037 1.64842 9.72679C1.52415 9.34991 1.49163 8.93521 1.55499 8.53513C1.61834 8.13504 1.77471 7.76754 2.00432 7.47909C2.23394 7.19065 2.52649 6.99421 2.84497 6.91463C3.16346 6.83505 3.49358 6.87589 3.79358 7.032C4.09359 7.18811 4.35001 7.45246 4.53042 7.79164C4.71083 8.13081 4.80712 8.52958 4.80712 8.9375C4.80712 9.48451 4.63414 10.0091 4.32624 10.3959C4.01833 10.7827 3.60072 11 3.16528 11ZM3.16528 8.25C3.05704 8.25 2.95123 8.29032 2.86123 8.36587C2.77123 8.44141 2.70108 8.54878 2.65966 8.67441C2.61824 8.80003 2.6074 8.93826 2.62851 9.07163C2.64963 9.20499 2.70176 9.32749 2.77829 9.42364C2.85483 9.51979 2.95235 9.58526 3.05851 9.61179C3.16467 9.63832 3.27471 9.6247 3.37471 9.57267C3.47472 9.52063 3.56019 9.43251 3.62033 9.31946C3.68046 9.2064 3.71256 9.07348 3.71256 8.9375C3.71256 8.75516 3.6549 8.5803 3.55226 8.45137C3.44963 8.32243 3.31043 8.25 3.16528 8.25Z" fill="black"/>
<path d="M8.63794 6.875C8.31321 6.875 7.99578 6.75404 7.72578 6.52741C7.45578 6.30078 7.24534 5.97866 7.12107 5.60179C6.99681 5.22491 6.96429 4.81021 7.02764 4.41013C7.09099 4.01004 7.24736 3.64254 7.47698 3.35409C7.70659 3.06565 7.99914 2.86921 8.31763 2.78963C8.63611 2.71005 8.96623 2.75089 9.26624 2.907C9.56625 3.06311 9.82267 3.32746 10.0031 3.66664C10.1835 4.00581 10.2798 4.40458 10.2798 4.8125C10.2798 5.35951 10.1068 5.88412 9.79889 6.27091C9.49099 6.6577 9.07338 6.875 8.63794 6.875ZM8.63794 4.125C8.52969 4.125 8.42388 4.16532 8.33388 4.24087C8.24388 4.31641 8.17374 4.42378 8.13231 4.54941C8.09089 4.67503 8.08005 4.81326 8.10117 4.94663C8.12229 5.07999 8.17441 5.20249 8.25095 5.29864C8.32749 5.39479 8.425 5.46026 8.53117 5.48679C8.63733 5.51332 8.74737 5.4997 8.84737 5.44767C8.94737 5.39563 9.03285 5.30751 9.09298 5.19446C9.15312 5.0814 9.18522 4.94848 9.18522 4.8125C9.18522 4.63016 9.12756 4.4553 9.02492 4.32637C8.92229 4.19743 8.78308 4.125 8.63794 4.125Z" fill="black"/>
<path d="M14.1106 4.125C13.7859 4.125 13.4684 4.00404 13.1984 3.77741C12.9284 3.55078 12.718 3.22866 12.5937 2.85179C12.4695 2.47491 12.4369 2.06021 12.5003 1.66013C12.5636 1.26004 12.72 0.892539 12.9496 0.604093C13.1793 0.315647 13.4718 0.119213 13.7903 0.0396313C14.1088 -0.0399507 14.4389 0.000893652 14.7389 0.156999C15.0389 0.313105 15.2953 0.577461 15.4757 0.916637C15.6561 1.25581 15.7524 1.65458 15.7524 2.0625C15.7524 2.60951 15.5795 3.13411 15.2715 3.52091C14.9636 3.9077 14.546 4.125 14.1106 4.125ZM14.1106 1.375C14.0023 1.375 13.8965 1.41532 13.8065 1.49087C13.7165 1.56641 13.6464 1.67378 13.605 1.79941C13.5635 1.92503 13.5527 2.06326 13.5738 2.19663C13.5949 2.32999 13.6471 2.45249 13.7236 2.54864C13.8001 2.64479 13.8977 2.71026 14.0038 2.73679C14.11 2.76332 14.22 2.7497 14.32 2.69767C14.42 2.64563 14.5055 2.55751 14.5656 2.44446C14.6258 2.3314 14.6579 2.19848 14.6579 2.0625C14.6579 1.88016 14.6002 1.7053 14.4976 1.57636C14.3949 1.44743 14.2557 1.375 14.1106 1.375Z" fill="black"/>
<path d="M4.10052 8.91677C3.98091 8.91637 3.8647 8.86676 3.76966 8.77553C3.67463 8.6843 3.606 8.55646 3.57428 8.41159C3.54256 8.26671 3.5495 8.11277 3.59403 7.97332C3.63856 7.83386 3.71824 7.71657 3.82086 7.6394L7.42196 4.93065C7.54589 4.85056 7.68946 4.83288 7.8234 4.88121C7.95734 4.92953 8.07156 5.04023 8.14277 5.19071C8.21397 5.3412 8.2368 5.52014 8.20659 5.69103C8.17638 5.86193 8.09541 6.01192 7.98019 6.1104L4.37909 8.81915C4.29488 8.88248 4.19866 8.9162 4.10052 8.91677Z" fill="black"/>
<path d="M9.64935 4.99105C9.52205 4.99119 9.39869 4.93559 9.30051 4.83381C9.20232 4.73202 9.13546 4.59043 9.11141 4.43339C9.08737 4.27636 9.10766 4.1137 9.16878 3.97343C9.22991 3.83316 9.32805 3.72404 9.44631 3.66486L12.8942 1.93305C12.9612 1.89788 13.033 1.87981 13.1056 1.87988C13.1782 1.87995 13.2501 1.89817 13.317 1.93346C13.3839 1.96876 13.4446 2.02043 13.4955 2.08546C13.5464 2.1505 13.5865 2.22761 13.6134 2.31229C13.6403 2.39697 13.6536 2.48754 13.6524 2.57872C13.6512 2.6699 13.6356 2.75987 13.6064 2.84339C13.5773 2.92691 13.5352 3.00231 13.4826 3.06521C13.4301 3.1281 13.3681 3.17723 13.3003 3.20973L9.85239 4.94155C9.78788 4.97432 9.71894 4.99113 9.64935 4.99105Z" fill="black"/>
</svg>
